PathFileType	4	(X/Y/Z)	C:\Users\86182\Documents\cortex\Trimmed_M4_H13.trc
DataRate	CameraRate	NumFrames	NumMarkers	Units	OrigDataRate	OrigDataStartFrame	OrigNumFrames
100.00	100.00	       126	2	mm	100.00	361	       901
Frame#	Time	gripper			box			
		X1	Y1	Z1	X2	Y2	Z2	

361	3.600	276.08267	151.15393	292.33942	278.20139	147.89061	156.93169	
362	3.610	276.07675	151.14220	292.31915	278.13855	147.87595	156.89140	
363	3.620	276.07324	151.13420	292.30493	278.09003	147.86908	156.86157	
364	3.630	276.06979	151.12939	292.29755	278.05994	147.86911	156.84435	
365	3.640	276.06564	151.12662	292.29657	278.05038	147.87335	156.83949	
366	3.650	276.06189	151.12473	292.30011	278.06033	147.87820	156.84421	
367	3.660	276.06036	151.12289	292.30554	278.08542	147.88057	156.85419	
368	3.670	276.06247	151.12074	292.31067	278.11890	147.87872	156.86530	
369	3.680	276.06848	151.11827	292.31393	278.15369	147.87254	156.87439	
370	3.690	276.07776	151.11565	292.31482	278.18393	147.86310	156.87965	
371	3.700	276.08908	151.11311	292.31348	278.20532	147.85217	156.88063	
372	3.710	276.10080	151.11099	292.31052	278.21512	147.84177	156.87796	
373	3.720	276.11102	151.10954	292.30679	278.21259	147.83376	156.87309	
374	3.730	276.11792	151.10898	292.30347	278.19946	147.82944	156.86781	
375	3.740	276.11975	151.10945	292.30161	278.18030	147.82932	156.86382	
376	3.750	276.11554	151.11090	292.30212	278.16150	147.83307	156.86252	
377	3.760	276.10571	151.11314	292.30508	278.14902	147.83958	156.86469	
378	3.770	276.09219	151.11581	292.30991	278.14548	147.84744	156.86993	
379	3.780	276.07770	151.11847	292.31537	278.14923	147.85530	156.87688	
380	3.790	276.06482	151.12076	292.32037	278.15582	147.86195	156.88367	
381	3.800	276.05521	151.12248	292.32413	278.16064	147.86653	156.88873	
382	3.810	276.04929	151.12360	292.32635	278.16058	147.86879	156.89114	
383	3.820	276.04678	151.12421	292.32709	278.15433	147.86890	156.89073	
384	3.830	276.04721	151.12437	292.32657	278.14258	147.86722	156.88809	
385	3.840	276.05014	151.12407	292.32507	278.12848	147.86429	156.88438	
386	3.850	276.05508	151.12326	292.32306	278.11667	147.86093	156.88101	
387	3.860	276.06137	151.12193	292.32089	278.11169	147.85786	156.87927	
388	3.870	276.06854	151.12012	292.31891	278.11609	147.85542	156.87979	
389	3.880	276.07602	151.11798	292.31720	278.12955	147.85349	156.88214	
390	3.890	276.08298	151.11583	292.31583	278.14926	147.85185	156.88524	
391	3.900	276.08850	151.11411	292.31476	278.17102	147.85056	156.88805	
392	3.910	276.09219	151.11308	292.31384	278.19034	147.84964	156.89000	
393	3.920	276.09406	151.11285	292.31290	278.20297	147.84918	156.89085	
394	3.930	276.09418	151.11340	292.31189	278.20605	147.84898	156.89050	
395	3.940	276.09296	151.11462	292.31079	278.19852	147.84886	156.88882	
396	3.950	276.09091	151.11623	292.30960	278.18134	147.84868	156.88583	
397	3.960	276.08850	151.11789	292.30853	278.15744	147.84853	156.88188	
398	3.970	276.08615	151.11928	292.30792	278.13153	147.84866	156.87772	
399	3.980	276.08411	151.12009	292.30801	278.10913	147.84908	156.87431	
400	3.990	276.08246	151.12013	292.30908	278.09518	147.84929	156.87274	
401	4.000	276.08157	151.11943	292.31085	278.09247	147.84866	156.87354	
402	4.010	276.08206	151.11806	292.31274	278.10083	147.84695	156.87643	
403	4.020	276.08408	151.11630	292.31415	278.11707	147.84454	156.88037	
404	4.030	276.08719	151.11456	292.31482	278.13629	147.84206	156.88388	
405	4.040	276.09097	151.11310	292.31458	278.15366	147.83987	156.88573	
406	4.050	276.09558	151.11200	292.31320	278.16592	147.83807	156.88527	
407	4.060	276.10153	151.11110	292.31061	278.17178	147.83647	156.88257	
408	4.070	276.10919	151.11024	292.30679	278.17209	147.83464	156.87831	
409	4.080	276.11810	151.10930	292.30225	278.16956	147.83209	156.87335	
410	4.090	276.12662	151.10841	292.29788	278.16794	147.82851	156.86873	
411	4.100	276.13229	151.10788	292.29483	278.16989	147.82408	156.86545	
412	4.110	276.13321	151.10803	292.29395	278.17514	147.81987	156.86453	
413	4.120	276.12845	151.10904	292.29565	278.18094	147.81726	156.86644	
414	4.130	276.11832	151.11090	292.29959	278.18405	147.81693	156.87068	
415	4.140	276.10425	151.11345	292.30511	278.18240	147.81842	156.87602	
416	4.150	276.08829	151.11639	292.31131	278.17517	147.82071	156.88103	
417	4.160	276.07288	151.11929	292.31720	278.16293	147.82272	156.88443	
418	4.170	276.06030	151.12173	292.32184	278.14743	147.82407	156.88542	
419	4.180	276.05194	151.12344	292.32483	278.13071	147.82518	156.88388	
420	4.190	276.04794	151.12439	292.32605	278.11475	147.82664	156.88039	
421	4.200	276.04758	151.12468	292.32587	278.10138	147.82840	156.87598	
422	4.210	276.04959	151.12456	292.32471	278.09268	147.82962	156.87190	
423	4.220	276.05270	151.12419	292.32324	278.09024	147.82967	156.86942	
424	4.230	276.05618	151.12364	292.32175	278.09412	147.82863	156.86919	
425	4.240	276.05981	151.12292	292.32043	278.10306	147.82692	156.87100	
426	4.250	276.06366	151.12206	292.31921	278.11526	147.82472	156.87398	
427	4.260	276.06799	151.12102	292.31790	278.12915	147.82187	156.87700	
428	4.270	276.07324	151.11977	292.31631	278.14307	147.81833	156.87917	
429	4.280	276.07959	151.11833	292.31427	278.15546	147.81404	156.87993	
430	4.290	276.08643	151.11688	292.31195	278.16507	147.80891	156.87936	
431	4.300	276.09244	151.11569	292.30975	278.17093	147.80336	156.87807	
432	4.310	276.09647	151.11502	292.30811	278.17258	147.79854	156.87682	
433	4.320	276.09735	151.11502	292.30750	278.17041	147.79549	156.87619	
434	4.330	276.09433	151.11580	292.30832	278.16577	147.79448	156.87631	
435	4.340	276.08755	151.11731	292.31055	278.16003	147.79533	156.87709	
436	4.350	276.07813	151.11929	292.31378	278.15390	147.79794	156.87845	
437	4.360	276.06750	151.12144	292.31754	278.14789	147.80196	156.88014	
438	4.370	276.05713	151.12350	292.32132	278.14240	147.80673	156.88168	
439	4.380	276.04782	151.12534	292.32471	278.13754	147.81175	156.88248	
440	4.390	276.04044	151.12682	292.32739	278.13284	147.81670	156.88223	
441	4.400	276.03589	151.12778	292.32895	278.12790	147.82120	156.88075	
442	4.410	276.03482	151.12810	292.32916	278.12268	147.82486	156.87814	
443	4.420	276.03723	151.12778	292.32806	278.11768	147.82748	156.87492	
444	4.430	276.04242	151.12691	292.32593	278.11389	147.82896	156.87193	
445	4.440	276.04929	151.12567	292.32324	278.11261	147.82912	156.87006	
446	4.450	276.05670	151.12427	292.32050	278.11456	147.82797	156.86990	
447	4.460	276.06378	151.12282	292.31799	278.11960	147.82594	156.87151	
448	4.470	276.07028	151.12134	292.31592	278.12653	147.82367	156.87444	
449	4.480	276.07617	151.11983	292.31430	278.13382	147.82175	156.87785	
450	4.490	276.08142	151.11836	292.31302	278.14008	147.82053	156.88087	
451	4.500	276.08578	151.11713	292.31198	278.14395	147.82021	156.88277	
452	4.510	276.08887	151.11632	292.31116	278.14426	147.82108	156.88319	
453	4.520	276.09027	151.11607	292.31061	278.14072	147.82346	156.88217	
454	4.530	276.08963	151.11644	292.31046	278.13376	147.82742	156.88004	
455	4.540	276.08673	151.11742	292.31091	278.12454	147.83249	156.87730	
456	4.550	276.08182	151.11880	292.31207	278.11447	147.83772	156.87465	
457	4.560	276.07556	151.12036	292.31387	278.10522	147.84218	156.87273	
458	4.570	276.06882	151.12183	292.31613	278.09802	147.84540	156.87198	
459	4.580	276.06210	151.12311	292.31863	278.09344	147.84743	156.87254	
460	4.590	276.05582	151.12421	292.32114	278.09128	147.84851	156.87405	
461	4.600	276.05038	151.12511	292.32336	278.09045	147.84904	156.87595	
462	4.610	276.04657	151.12572	292.32495	278.08984	147.84929	156.87766	
463	4.620	276.04523	151.12595	292.32553	278.08929	147.84908	156.87874	
464	4.630	276.04678	151.12567	292.32489	278.08969	147.84789	156.87888	
465	4.640	276.05136	151.12483	292.32315	278.09219	147.84528	156.87798	
466	4.650	276.05865	151.12343	292.32043	278.09723	147.84126	156.87616	
467	4.660	276.06833	151.12151	292.31696	278.10489	147.83609	156.87392	
468	4.670	276.07959	151.11920	292.31299	278.11481	147.83005	156.87189	
469	4.680	276.09113	151.11682	292.30893	278.12622	147.82372	156.87064	
470	4.690	276.10144	151.11464	292.30542	278.13763	147.81805	156.87039	
471	4.700	276.10934	151.11290	292.30280	278.14734	147.81390	156.87100	
472	4.710	276.11420	151.11174	292.30133	278.15384	147.81165	156.87219	
473	4.720	276.11554	151.11128	292.30115	278.15601	147.81142	156.87363	
474	4.730	276.11307	151.11163	292.30225	278.15335	147.81322	156.87491	
475	4.740	276.10703	151.11278	292.30450	278.14603	147.81689	156.87564	
476	4.750	276.09778	151.11467	292.30777	278.13455	147.82225	156.87560	
477	4.760	276.08615	151.11717	292.31168	278.12012	147.82890	156.87479	
478	4.770	276.07339	151.12004	292.31580	278.10464	147.83606	156.87352	
479	4.780	276.06113	151.12285	292.31967	278.09076	147.84251	156.87247	
480	4.790	276.05084	151.12524	292.32288	278.08090	147.84702	156.87242	
481	4.800	276.04346	151.12694	292.32520	278.07635	147.84888	156.87375	
482	4.810	276.03952	151.12781	292.32648	278.07706	147.84799	156.87636	
483	4.820	276.03925	151.12785	292.32660	278.08218	147.84473	156.87973	
484	4.830	276.04260	151.12711	292.32550	278.09079	147.83961	156.88298	
485	4.840	276.04926	151.12566	292.32330	278.10190	147.83325	156.88515	
486	4.850	276.05869	151.12367	292.32007	278.11462	147.82610	156.88548	
